<svg width="32" height="20" fill="none" xmlns="http://www.w3.org/2000/svg"><path d="m12.15 5.18-4.19 9.99H5.23L3.16 7.2c-.12-.5-.23-.67-.6-.88C1.92 5.98.9 5.67 0 5.47l.06-.29h4.4c.56 0 1.07.37 1.2 1.02l1.08 5.78 2.7-6.8h2.71Zm3.7 0-2.14 9.99h-2.59l2.14-9.99h2.58Zm7 6.73c.02-2.64-3.64-2.78-3.61-3.96 0-.36.35-.74 1.1-.84.36-.05 1.39-.08 2.54.45l.46-2.12A6.98 6.98 0 0 0 20.92 5c-2.56 0-4.36 1.36-4.37 3.3-.02 1.44 1.28 2.24 2.26 2.72 1.01.49 1.35.8 1.34 1.24 0 .67-.8.96-1.54.98-1.3.02-2.06-.36-2.66-.64l-.47 2.2c.6.27 1.72.51 2.88.52 2.71 0 4.5-1.34 4.5-3.41Zm6.76 3.26H32l-2.09-9.99h-2.2c-.5 0-.92.3-1.1.73l-3.89 9.26h2.72l.54-1.5h3.32l.3 1.5Zm-2.89-3.54 1.36-3.75.79 3.75h-2.15Z" fill="#1A1F71"/></svg>