<svg viewBox="0 0 16 16" xmlns="http://www.w3.org/2000/svg">
  <path fill-rule="evenodd" clip-rule="evenodd"
    d="M11.15 2.15a.5.5 0 0 0-.36-.15H9a1 1 0 1 0 0 2h.5c.28 0 .5.22.5.5V8.14a2 2 0 0 1-2.33 1.97l-.25-.04a.5.5 0 0 1-.42-.5V8.5a.5.5 0 0 0-.5-.5H2.2a.48.48 0 0 0-.34.15A6.83 6.83 0 0 0 0 12.83c0 .1.08.17.17.17H1.5c.28 0 .5.23.56.5a2 2 0 0 0 3.88 0c.07-.27.28-.5.56-.5h3c.28 0 .5.23.56.5a2 2 0 0 0 3.88 0c.07-.27.28-.5.56-.5h1c.28 0 .5-.22.47-.5a4.16 4.16 0 0 0-2.82-3.45.32.32 0 0 1-.2-.2l-.81-2.44a.5.5 0 0 1 .25-.6l.37-.19a1 1 0 0 0 .26-1.6l-1.87-1.87ZM2.5 3a.5.5 0 0 0-.5.5v3c0 .28.22.5.5.5h3a.5.5 0 0 0 .5-.5v-3a.5.5 0 0 0-.5-.5h-3ZM5 13a1 1 0 1 1-2 0 1 1 0 0 1 2 0Zm7 1a1 1 0 1 0 0-2 1 1 0 0 0 0 2Z" />
</svg>
