<?xml version="1.0" standalone="no"?>
<!DOCTYPE svg PUBLIC "-//W3C//DTD SVG 20010904//EN"
 "http://www.w3.org/TR/2001/REC-SVG-20010904/DTD/svg10.dtd">
<svg version="1.0" xmlns="http://www.w3.org/2000/svg"
 width="700.000000pt" height="700.000000pt" viewBox="0 0 700.000000 700.000000"
 preserveAspectRatio="xMidYMid meet">
<metadata>
Created by potrace 1.14, written by Peter Selinger 2001-2017
</metadata>
<g transform="translate(0.000000,700.000000) scale(0.100000,-0.100000)"
fill="#000000" stroke="none">
<path d="M3280 6994 c-129 -11 -151 -16 -179 -40 -16 -13 -33 -38 -36 -55 l-7
-31 -18 30 c-36 59 -78 64 -236 32 -119 -24 -321 -77 -346 -91 -24 -13 -48
-61 -48 -96 0 -27 -5 -31 -92 -62 -51 -19 -145 -57 -210 -86 -65 -29 -118 -49
-118 -44 0 14 -62 49 -88 49 -27 0 -76 -24 -190 -92 -97 -58 -122 -95 -105
-151 l10 -33 -94 -67 -94 -67 -29 22 c-64 47 -141 -4 -396 -264 -233 -238
-262 -285 -215 -348 l21 -29 -50 6 c-36 4 -56 1 -74 -11 -41 -26 -266 -381
-282 -443 -9 -33 3 -71 29 -96 l22 -22 -51 -115 c-29 -63 -67 -157 -85 -207
-32 -87 -36 -93 -62 -93 -35 0 -83 -24 -96 -48 -17 -31 -71 -246 -71 -280 0
-33 36 -82 68 -93 10 -3 10 -22 -3 -93 -8 -49 -15 -99 -15 -111 0 -18 -7 -24
-33 -29 -43 -8 -76 -43 -88 -93 -13 -59 -23 -384 -14 -515 l7 -116 32 61 c35
68 102 126 166 146 24 7 150 11 362 11 263 0 334 -3 368 -15 37 -13 47 -13 89
0 39 13 117 15 521 13 l475 -3 55 -31 c48 -27 93 -73 125 -129 9 -15 15 -11
42 34 20 32 50 62 77 79 25 15 46 30 46 33 0 3 -17 13 -37 22 -105 46 -168
144 -168 262 0 55 5 81 25 120 41 82 395 521 440 548 29 16 43 33 54 64 8 23
25 57 38 75 65 95 543 690 568 708 55 39 102 53 182 53 l77 0 -17 31 c-26 48
-23 179 6 233 23 45 203 273 243 310 77 70 213 88 312 40 104 -52 162 -144
161 -262 0 -92 -18 -127 -147 -291 -142 -178 -186 -207 -314 -207 -40 1 -73 0
-73 -1 0 0 7 -19 15 -41 19 -53 19 -141 0 -197 -22 -64 -548 -731 -612 -776
-34 -24 -52 -46 -65 -78 -19 -51 -43 -85 -254 -350 -83 -105 -167 -202 -185
-215 l-34 -24 130 -5 c120 -5 134 -8 183 -35 90 -49 141 -128 150 -231 9 -118
-56 -231 -166 -286 -45 -22 -57 -23 -257 -23 -209 0 -210 0 -261 27 -28 15
-69 47 -91 72 l-40 45 -21 -52 c-20 -47 -161 -238 -230 -310 -15 -16 -49 -41
-77 -55 -42 -22 -64 -26 -131 -27 l-82 0 16 -30 c27 -49 23 -178 -7 -235 -13
-25 -148 -202 -299 -393 -197 -249 -285 -354 -313 -370 -21 -12 -39 -28 -39
-35 0 -26 -44 -99 -109 -182 -37 -47 -70 -91 -75 -98 -9 -15 221 -253 351
-363 96 -82 136 -95 183 -60 36 26 44 27 30 2 -15 -29 -12 -83 5 -109 28 -40
383 -263 442 -278 33 -9 71 3 96 29 l22 22 115 -51 c64 -28 157 -66 208 -85
87 -31 92 -35 92 -62 0 -35 24 -83 48 -96 31 -17 246 -71 280 -71 33 0 82 36
93 68 3 9 28 8 116 -5 l112 -18 6 -32 c9 -47 54 -80 122 -90 75 -10 551 -10
626 0 67 10 112 42 122 88 l7 31 18 -30 c36 -59 78 -64 236 -32 119 24 321 77
346 91 24 13 48 61 48 96 0 26 6 30 113 70 61 23 142 55 178 72 60 27 67 33
80 73 8 25 34 64 64 95 l50 51 -37 31 c-20 17 -49 57 -65 88 l-28 58 -3 420
c-2 333 0 431 11 473 12 44 12 60 0 105 -11 40 -13 119 -11 347 l3 295 27 51
c78 149 255 206 398 128 57 -31 89 -65 123 -128 21 -40 22 -49 21 -366 0 -179
-1 -347 -1 -375 -4 -358 4 -972 12 -968 6 4 18 12 27 20 14 13 20 12 47 -8 64
-47 109 -20 349 215 260 255 311 332 263 396 l-21 29 50 -6 c36 -4 56 -1 74
11 41 26 266 381 282 444 9 32 -3 70 -29 95 l-22 22 51 115 c28 63 66 157 85
207 32 87 36 93 62 93 35 0 83 24 96 48 17 31 71 246 71 280 0 24 -8 41 -28
60 -42 40 -74 62 -89 62 -24 0 -97 41 -131 74 -58 54 -86 120 -86 206 -1 123
57 214 168 266 43 20 67 24 155 24 l104 0 -7 188 c-3 103 -10 204 -15 225 -11
48 -44 84 -83 92 l-30 7 30 18 c59 36 64 78 32 236 -24 119 -77 321 -91 346
-13 24 -61 48 -96 48 -26 0 -30 6 -62 93 -19 50 -57 145 -86 210 -29 64 -49
117 -44 117 14 0 49 62 49 88 0 27 -24 76 -92 190 -58 97 -95 122 -151 105
l-33 -10 -67 94 -67 94 22 29 c34 47 21 88 -60 183 -75 88 -327 338 -404 400
-59 49 -108 58 -148 28 -36 -26 -44 -27 -30 -2 17 32 12 86 -11 115 -11 14
-24 26 -29 26 -5 0 -10 -78 -12 -173 -3 -173 -3 -174 -33 -223 -37 -59 -112
-118 -172 -134 -57 -17 -158 -8 -208 18 -54 27 -109 84 -136 141 -20 40 -24
67 -28 219 l-6 173 -128 -160 c-136 -171 -168 -202 -236 -226 -187 -66 -384
75 -384 275 0 44 7 80 20 110 11 25 89 133 173 240 84 107 158 201 163 208 15
19 1 26 -133 61 -146 39 -173 39 -209 3 -15 -15 -30 -33 -32 -40 -3 -9 -28 -8
-116 5 l-112 18 -5 31 c-8 40 -44 73 -93 85 -39 10 -484 20 -563 13z m2038
-1369 c69 -21 129 -69 166 -135 l31 -55 -1 -325 c0 -179 -1 -345 -2 -370 0
-25 1 -242 4 -484 5 -512 5 -514 -76 -598 l-49 -51 48 -53 c56 -61 81 -123 81
-203 l0 -56 29 36 c16 19 53 48 82 64 l54 30 207 3 207 3 61 -27 c116 -52 177
-155 168 -283 -8 -109 -66 -194 -167 -243 -43 -22 -58 -23 -256 -23 -209 0
-210 0 -262 27 -28 15 -71 50 -94 77 l-43 49 -30 -51 c-67 -112 -213 -165
-336 -122 -35 12 -110 15 -409 15 -318 1 -373 3 -416 18 -47 16 -53 16 -104
-1 -48 -16 -87 -18 -375 -15 -302 3 -324 4 -367 24 -188 87 -234 325 -91 469
20 20 55 47 77 58 38 21 54 22 379 25 285 3 348 1 387 -12 42 -14 52 -14 89
-1 34 12 102 15 340 15 l298 0 27 55 c14 30 44 70 65 87 l38 32 -45 43 c-24
24 -54 65 -66 91 -22 46 -22 56 -22 492 0 343 3 450 13 467 10 19 10 32 -3 78
-14 46 -16 103 -13 352 l3 298 27 51 c69 131 206 190 346 149z"/>
<path d="M50 2942 c0 -69 83 -432 111 -484 13 -24 61 -48 96 -48 26 0 30 -6
62 -93 18 -50 57 -145 86 -209 29 -65 49 -118 44 -118 -14 0 -49 -62 -49 -88
0 -24 35 -99 77 -166 l25 -39 40 47 c22 25 53 53 69 62 20 10 38 34 57 77 16
34 60 100 98 147 38 47 160 200 271 341 121 153 218 266 241 282 55 36 108 50
180 45 34 -1 62 -1 62 2 0 3 -7 23 -15 45 -8 22 -14 55 -15 73 l0 32 -202 0
c-165 1 -212 4 -253 18 -47 16 -53 16 -100 0 -43 -15 -95 -17 -361 -18 -366 0
-383 3 -468 81 l-56 51 0 -40z"/>
</g>
</svg>
