<svg width="259" height="40" fill="none" xmlns="http://www.w3.org/2000/svg"><path d="M20 0c-.66 0-1.32.03-1.96.1a.6.6 0 0 0-.54.66h-.01l-.04.01h-.01a.6.6 0 0 0-.7-.5c-.87.14-1.72.34-2.55.59a.6.6 0 0 0-.4.75v.01a19.27 19.27 0 0 0-2.4.99.6.6 0 0 0-.82-.25A20 20 0 0 0 9.44 3a.6.6 0 0 0-.2.84v.01a19.46 19.46 0 0 0-1.08.76.6.6 0 0 0-.85-.08A20.12 20.12 0 0 0 4.54 7.3a.6.6 0 0 0 .08.85v.02a17.45 17.45 0 0 0-.03.03.6.6 0 0 0-.85.14 20 20 0 0 0-1.38 2.22.6.6 0 0 0 .25.82v.01a19.27 19.27 0 0 0-1 2.39.6.6 0 0 0-.75.4c-.13.42-.24.84-.34 1.27a.6.6 0 0 0 .45.72v.02a19.34 19.34 0 0 0-.21 1.3.6.6 0 0 0-.67.54 20.24 20.24 0 0 0 0 3.92.6.6 0 0 0 .67.54v.01l.01.04v.01a.6.6 0 0 0-.5.7c.14.87.34 1.72.59 2.55.1.32.43.5.75.4h.01a19.27 19.27 0 0 0 .99 2.4.6.6 0 0 0-.25.82c.2.39.42.76.65 1.13a.6.6 0 0 0 .84.2h.01a19.47 19.47 0 0 0 .76 1.08.6.6 0 0 0-.08.85 20.12 20.12 0 0 0 2.77 2.77.6.6 0 0 0 .85-.08h.02l.03.02v.01a.6.6 0 0 0 .14.85 20 20 0 0 0 2.22 1.38c.3.16.66.05.82-.25h.01a19.27 19.27 0 0 0 2.39 1 .6.6 0 0 0 .4.75c.42.13.84.24 1.27.34a.6.6 0 0 0 .72-.45h.02a19.36 19.36 0 0 0 1.3.21.6.6 0 0 0 .54.67 20.23 20.23 0 0 0 3.92 0 .6.6 0 0 0 .54-.67h.01l.04-.01h.01a.6.6 0 0 0 .7.5c.87-.14 1.72-.34 2.55-.59a.6.6 0 0 0 .4-.75v-.01a19.27 19.27 0 0 0 2.4-.99c.16.3.53.41.82.25.39-.2.76-.42 1.13-.65a.6.6 0 0 0 .2-.84v-.01a19.45 19.45 0 0 0 1.08-.76c.2.26.59.3.85.08a20.12 20.12 0 0 0 2.77-2.77.6.6 0 0 0-.08-.85v-.02l.02-.03h.01c.27.2.65.13.85-.14a20 20 0 0 0 1.38-2.22.6.6 0 0 0-.25-.82v-.01a19.27 19.27 0 0 0 1-2.39.6.6 0 0 0 .75-.4c.13-.42.24-.84.34-1.27a.6.6 0 0 0-.45-.72v-.02a19.36 19.36 0 0 0 .21-1.3.6.6 0 0 0 .67-.54 20.23 20.23 0 0 0 0-3.92.6.6 0 0 0-.67-.54v-.01l-.01-.04v-.01a.6.6 0 0 0 .5-.7c-.14-.87-.34-1.72-.59-2.55a.6.6 0 0 0-.75-.4h-.01a19.27 19.27 0 0 0-.99-2.4.6.6 0 0 0 .25-.82c-.2-.39-.42-.76-.65-1.13a.6.6 0 0 0-.84-.2h-.01a19.44 19.44 0 0 0-.76-1.08.6.6 0 0 0 .08-.85 20.12 20.12 0 0 0-2.77-2.77.6.6 0 0 0-.85.08h-.02a7.11 7.11 0 0 0-.03-.03.6.6 0 0 0-.14-.85 20 20 0 0 0-2.22-1.38.6.6 0 0 0-.82.25h-.01a19.27 19.27 0 0 0-2.39-1 .6.6 0 0 0-.4-.75c-.42-.13-.84-.24-1.27-.34a.6.6 0 0 0-.72.45h-.02a19.34 19.34 0 0 0-1.3-.21.6.6 0 0 0-.54-.67C21.32.03 20.66 0 20 0Z" fill="#FFC680"/><path d="M20 2.5c-.58 0-1.15.03-1.72.08-.29.03-.5.3-.47.58v.01a19.3 19.3 0 0 0-.05 0 .53.53 0 0 0-.61-.44c-.76.13-1.5.3-2.23.52a.53.53 0 0 0-.36.66v.01a16.87 16.87 0 0 0-2.1.86.53.53 0 0 0-.71-.22c-.34.18-.67.38-1 .58a.53.53 0 0 0-.16.73 17 17 0 0 0-.95.68.53.53 0 0 0-.74-.08A17.6 17.6 0 0 0 6.47 8.9a.53.53 0 0 0 .08.74v.02a17.07 17.07 0 0 0-.04.02.53.53 0 0 0-.74.13 17.5 17.5 0 0 0-1.2 1.94.53.53 0 0 0 .21.72 16.87 16.87 0 0 0-.87 2.1.53.53 0 0 0-.66.35c-.11.36-.21.73-.3 1.1-.06.29.11.58.4.64v.01a16.93 16.93 0 0 0-.19 1.14.53.53 0 0 0-.58.47 17.7 17.7 0 0 0 0 3.44c.03.29.3.5.58.47h.01a19.3 19.3 0 0 0 0 .05.53.53 0 0 0-.44.61c.13.76.3 1.5.52 2.23.08.28.38.44.66.36h.01a16.87 16.87 0 0 0 .86 2.1.53.53 0 0 0-.22.71c.18.34.38.67.58 1 .15.24.48.32.73.16a17.03 17.03 0 0 0 .68.95.53.53 0 0 0-.08.74c.73.89 1.54 1.7 2.43 2.43.22.18.56.15.74-.08h.02l.02.02v.02a.53.53 0 0 0 .13.74c.61.44 1.26.84 1.94 1.2.26.14.58.05.72-.21a16.88 16.88 0 0 0 2.1.87c-.09.28.07.58.35.66.36.11.73.21 1.1.3.29.06.58-.11.64-.4h.01a16.92 16.92 0 0 0 1.14.19c-.03.29.18.55.47.58a17.72 17.72 0 0 0 3.44 0c.29-.03.5-.3.47-.58v-.01h.05c.05.29.32.49.61.44.76-.13 1.5-.3 2.23-.52a.53.53 0 0 0 .36-.66v-.01a16.88 16.88 0 0 0 2.1-.86c.13.26.45.35.71.22.34-.18.67-.38 1-.58a.53.53 0 0 0 .16-.73 17 17 0 0 0 .95-.68c.18.23.52.26.74.08a17.6 17.6 0 0 0 2.43-2.43.53.53 0 0 0-.08-.74v-.02l.02-.02h.02c.23.17.56.11.74-.13.44-.61.84-1.26 1.2-1.94a.53.53 0 0 0-.21-.72 16.88 16.88 0 0 0 .87-2.1c.28.09.58-.07.66-.35.11-.36.21-.73.3-1.1a.53.53 0 0 0-.4-.64v-.01a16.92 16.92 0 0 0 .19-1.14c.29.03.55-.18.58-.47a17.72 17.72 0 0 0 0-3.44.53.53 0 0 0-.58-.47h-.01v-.05a.53.53 0 0 0 .44-.61c-.13-.76-.3-1.5-.52-2.23a.53.53 0 0 0-.66-.36h-.01a16.88 16.88 0 0 0-.86-2.1.53.53 0 0 0 .22-.71 17.5 17.5 0 0 0-.58-1 .53.53 0 0 0-.73-.16 16.98 16.98 0 0 0-.68-.95.53.53 0 0 0 .08-.74 17.6 17.6 0 0 0-2.43-2.43.53.53 0 0 0-.74.08h-.02l-.02-.02V6.5a.53.53 0 0 0-.13-.74c-.61-.44-1.26-.84-1.94-1.2a.53.53 0 0 0-.72.21 16.87 16.87 0 0 0-2.1-.87.53.53 0 0 0-.35-.66c-.36-.11-.73-.21-1.1-.3a.53.53 0 0 0-.64.4h-.01a16.93 16.93 0 0 0-1.14-.19.53.53 0 0 0-.47-.58A17.7 17.7 0 0 0 20 2.5Z" fill="#F79D5C"/><path d="m10.63 10-.31.01a.1.1 0 0 0-.09.1v.01a.1.1 0 0 0-.11-.08c-.14.02-.27.05-.4.1a.1.1 0 0 0-.07.11 3.02 3.02 0 0 0-.37.16.1.1 0 0 0-.13-.04l-.18.1a.1.1 0 0 0-.03.13 3.05 3.05 0 0 0-.16.12.1.1 0 0 0-.14-.01c-.16.13-.3.27-.43.43a.1.1 0 0 0 .01.14.1.1 0 0 0-.14.02c-.07.12-.15.23-.21.35a.1.1 0 0 0 .04.13 3 3 0 0 0-.16.37.1.1 0 0 0-.12.07 3.1 3.1 0 0 0-.05.2.1.1 0 0 0 .07.1v.01a3.02 3.02 0 0 0-.03.2.1.1 0 0 0-.1.09 3.16 3.16 0 0 0 0 .61c0 .05.05.1.1.09a.1.1 0 0 0-.08.11c.02.14.05.27.1.4a.1.1 0 0 0 .11.07 3 3 0 0 0 .16.37.1.1 0 0 0-.04.13l.1.18a.1.1 0 0 0 .13.03 3.04 3.04 0 0 0 .12.16.1.1 0 0 0-.01.14c.13.16.27.3.43.43.04.03.1.03.14-.01a.1.1 0 0 0 .02.14c.12.07.23.15.35.21.05.03.1 0 .13-.04a3.02 3.02 0 0 0 .37.16.1.1 0 0 0 .07.12l.2.05a.1.1 0 0 0 .1-.07h.01a2.97 2.97 0 0 0 .2.03c0 .05.04.1.09.1a3.17 3.17 0 0 0 .61 0 .1.1 0 0 0 .09-.1c.01.05.06.09.11.08.14-.02.27-.05.4-.1a.1.1 0 0 0 .07-.11 3.02 3.02 0 0 0 .37-.16.1.1 0 0 0 .13.04l.18-.1a.1.1 0 0 0 .03-.13 3.06 3.06 0 0 0 .16-.12c.04.04.1.04.14.01.16-.13.3-.27.43-.43a.1.1 0 0 0-.01-.14c.05.03.1.02.14-.02.07-.12.15-.23.21-.35a.1.1 0 0 0-.04-.13 3.02 3.02 0 0 0 .16-.37.1.1 0 0 0 .12-.07l.05-.2a.1.1 0 0 0-.07-.1v-.01a2.97 2.97 0 0 0 .03-.2.1.1 0 0 0 .1-.09 3.17 3.17 0 0 0 0-.61.1.1 0 0 0-.1-.09.1.1 0 0 0 .08-.11 3.11 3.11 0 0 0-.1-.4.1.1 0 0 0-.11-.07 3.02 3.02 0 0 0-.16-.37.1.1 0 0 0 .04-.13 3.13 3.13 0 0 0-.1-.18.1.1 0 0 0-.13-.03 3.06 3.06 0 0 0-.12-.16.1.1 0 0 0 .01-.14c-.13-.16-.27-.3-.43-.43a.1.1 0 0 0-.14.01.1.1 0 0 0-.02-.14 3.12 3.12 0 0 0-.35-.21.1.1 0 0 0-.13.04 3.02 3.02 0 0 0-.37-.16.1.1 0 0 0-.07-.12 3.1 3.1 0 0 0-.2-.05.1.1 0 0 0-.1.07h-.01a2.97 2.97 0 0 0-.2-.03.1.1 0 0 0-.09-.1l-.3-.02ZM14.38 27.5l-.31.01a.1.1 0 0 0-.09.1v.01a.1.1 0 0 0-.11-.08c-.14.02-.27.05-.4.1a.1.1 0 0 0-.07.11 3.02 3.02 0 0 0-.37.16.1.1 0 0 0-.13-.04l-.18.1a.1.1 0 0 0-.03.13 3.06 3.06 0 0 0-.16.12.1.1 0 0 0-.14-.01c-.16.13-.3.27-.43.43a.1.1 0 0 0 .01.14.1.1 0 0 0-.14.02c-.07.12-.15.23-.21.35a.1.1 0 0 0 .04.13 3.02 3.02 0 0 0-.16.37.1.1 0 0 0-.12.07 3.1 3.1 0 0 0-.05.2.1.1 0 0 0 .07.1v.01a2.97 2.97 0 0 0-.03.2.1.1 0 0 0-.1.09 3.17 3.17 0 0 0 0 .61c0 .05.05.1.1.09a.1.1 0 0 0-.08.11c.02.14.05.27.1.4a.1.1 0 0 0 .11.07 3.02 3.02 0 0 0 .16.37.1.1 0 0 0-.04.13l.1.18a.1.1 0 0 0 .13.03 3.06 3.06 0 0 0 .12.16.1.1 0 0 0-.01.14c.13.16.27.3.43.43.04.03.1.03.14-.01a.1.1 0 0 0 .02.14c.12.07.23.15.35.21.05.03.1 0 .13-.04a3.02 3.02 0 0 0 .37.16.1.1 0 0 0 .07.12l.2.05a.1.1 0 0 0 .1-.07h.01a2.97 2.97 0 0 0 .2.03c0 .05.04.1.09.1a3.17 3.17 0 0 0 .61 0 .1.1 0 0 0 .09-.1c.01.05.06.09.11.08.14-.02.27-.05.4-.1a.1.1 0 0 0 .07-.11 3.02 3.02 0 0 0 .37-.16.1.1 0 0 0 .13.04l.18-.1a.1.1 0 0 0 .03-.13 3.06 3.06 0 0 0 .16-.12c.04.04.1.04.14.01.16-.13.3-.27.43-.43a.1.1 0 0 0-.01-.14c.05.03.1.02.14-.02.07-.12.15-.23.21-.35a.1.1 0 0 0-.04-.13 3.02 3.02 0 0 0 .16-.37.1.1 0 0 0 .12-.07l.05-.2a.1.1 0 0 0-.07-.1v-.01a2.97 2.97 0 0 0 .03-.2.1.1 0 0 0 .1-.09 3.17 3.17 0 0 0 0-.61.1.1 0 0 0-.1-.09.1.1 0 0 0 .08-.11 3.11 3.11 0 0 0-.1-.4.1.1 0 0 0-.11-.07 3.02 3.02 0 0 0-.16-.37.1.1 0 0 0 .04-.13 3.13 3.13 0 0 0-.1-.18.1.1 0 0 0-.13-.03 3.06 3.06 0 0 0-.12-.16.1.1 0 0 0 .01-.14c-.13-.16-.27-.3-.43-.43a.1.1 0 0 0-.14.01.1.1 0 0 0-.02-.14 3.12 3.12 0 0 0-.35-.21.1.1 0 0 0-.13.04 3.02 3.02 0 0 0-.37-.16.1.1 0 0 0-.07-.12 3.1 3.1 0 0 0-.2-.05.1.1 0 0 0-.1.07h-.01a2.97 2.97 0 0 0-.2-.03.1.1 0 0 0-.09-.1c-.1-.02-.2-.02-.3-.02ZM24.38 12.5l-.31.01a.1.1 0 0 0-.09.1v.01a.1.1 0 0 0-.11-.08c-.14.02-.27.05-.4.1a.1.1 0 0 0-.07.11 3.02 3.02 0 0 0-.37.16.1.1 0 0 0-.13-.04l-.18.1a.1.1 0 0 0-.03.13 3.06 3.06 0 0 0-.16.12.1.1 0 0 0-.14-.01c-.16.13-.3.27-.43.43a.1.1 0 0 0 .01.14.1.1 0 0 0-.14.02c-.07.12-.15.23-.21.35a.1.1 0 0 0 .04.13 3.02 3.02 0 0 0-.16.37.1.1 0 0 0-.12.07 3.1 3.1 0 0 0-.05.2.1.1 0 0 0 .07.1v.01a2.97 2.97 0 0 0-.03.2.1.1 0 0 0-.1.09 3.17 3.17 0 0 0 0 .61c0 .05.05.1.1.09a.1.1 0 0 0-.08.11c.02.14.05.27.1.4a.1.1 0 0 0 .11.07 3.02 3.02 0 0 0 .16.37.1.1 0 0 0-.04.13l.1.18a.1.1 0 0 0 .13.03 3.06 3.06 0 0 0 .12.16.1.1 0 0 0-.01.14c.13.16.27.3.43.43.04.03.1.03.14-.01a.1.1 0 0 0 .02.14c.12.07.23.15.35.21.05.03.1 0 .13-.04a3.02 3.02 0 0 0 .37.16.1.1 0 0 0 .07.12l.2.05a.1.1 0 0 0 .1-.07h.01a2.97 2.97 0 0 0 .2.03c0 .05.04.1.09.1a3.17 3.17 0 0 0 .61 0 .1.1 0 0 0 .09-.1c.01.05.06.09.11.08.14-.02.27-.05.4-.1a.1.1 0 0 0 .07-.11 3.02 3.02 0 0 0 .37-.16.1.1 0 0 0 .13.04l.18-.1a.1.1 0 0 0 .03-.13 3.06 3.06 0 0 0 .16-.12c.04.04.1.04.14.01.16-.13.3-.27.43-.43a.1.1 0 0 0-.01-.14c.05.03.1.02.14-.02.07-.12.15-.23.21-.35a.1.1 0 0 0-.04-.13 3.02 3.02 0 0 0 .16-.37.1.1 0 0 0 .12-.07l.05-.2a.1.1 0 0 0-.07-.1v-.01a2.97 2.97 0 0 0 .03-.2.1.1 0 0 0 .1-.09 3.17 3.17 0 0 0 0-.61.1.1 0 0 0-.1-.09.1.1 0 0 0 .08-.11 3.11 3.11 0 0 0-.1-.4.1.1 0 0 0-.11-.07 3.02 3.02 0 0 0-.16-.37.1.1 0 0 0 .04-.13 3.13 3.13 0 0 0-.1-.18.1.1 0 0 0-.13-.03 3.06 3.06 0 0 0-.12-.16.1.1 0 0 0 .01-.14c-.13-.16-.27-.3-.43-.43a.1.1 0 0 0-.14.01.1.1 0 0 0-.02-.14 3.12 3.12 0 0 0-.35-.21.1.1 0 0 0-.13.04 3.02 3.02 0 0 0-.37-.16.1.1 0 0 0-.07-.12 3.1 3.1 0 0 0-.2-.05.1.1 0 0 0-.1.07h-.01a2.97 2.97 0 0 0-.2-.03.1.1 0 0 0-.09-.1l-.3-.02Z" fill="#F3752B"/><path fill-rule="evenodd" clip-rule="evenodd" d="M.3 22.93a.6.6 0 0 1 .46-.37h.01v-.05H.76a.6.6 0 0 1-.67-.55l-.01-.2c.13-.78.82-1.38 1.64-1.38h3.12c.29 0 .55.07.79.2.23-.13.5-.2.78-.2h4.68c.72 0 1.33.45 1.57 1.08.16-.43.5-.79.94-.96a1.67 1.67 0 0 1-.9-2.65l1.93-2.44c.17-.22.39-.38.63-.49.05-.26.16-.5.33-.73l2.89-3.66a1.67 1.67 0 0 1 1.8-.56 1.67 1.67 0 0 1 .13-1.88l.96-1.22a1.67 1.67 0 1 1 2.61 2.06l-.96 1.22c-.44.56-1.16.76-1.8.57.34.57.31 1.32-.12 1.88l-2.9 3.66c-.17.22-.39.38-.63.49-.04.25-.15.5-.33.73l-1.92 2.44c-.16.2-.36.35-.57.46h1.03a1.67 1.67 0 0 1 0 3.33h-1.56c-.63 0-1.18-.35-1.46-.86-.05.26-.16.5-.33.73l-.96 1.22c-.44.55-1.16.75-1.8.56.34.57.3 1.32-.13 1.88L6.65 30.9c-.17.22-.39.38-.63.49-.05.26-.16.5-.33.73l-.79 1-.36-.43a.6.6 0 0 1 .08-.85v-.02a19.43 19.43 0 0 1-.77-1.06.6.6 0 0 1-.84-.2l-.15-.24.21-.27c.18-.22.4-.38.63-.49.05-.26.16-.5.34-.73l2.88-3.66a1.67 1.67 0 0 1 1.8-.56 1.67 1.67 0 0 1-.23-.9H6.41c-.29 0-.55-.07-.78-.2-.24.13-.5.2-.79.2H1.72c-.6 0-1.12-.31-1.42-.78Zm30.55 13.6a.6.6 0 0 1-.29.46c-.37.23-.74.45-1.13.65a.6.6 0 0 1-.82-.25h-.01l-.33.16c.1-.46.38-.84.76-1.07-.48-.3-.8-.82-.8-1.43v-4.27c0-.25.06-.5.16-.71-.1-.22-.16-.46-.16-.71V26.5a1.67 1.67 0 0 1 3.33 0v2.85c0 .25-.05.5-.15.71.1.22.15.46.15.71v4.27c0 .21-.03.42-.1.6a19.37 19.37 0 0 1-.7.5.6.6 0 0 1 .09.27l-.08.06.08.05ZM40 20.38a20.2 20.2 0 0 1-.1 1.58.6.6 0 0 1-.66.54v.01c-.06.4-.12.8-.2 1.2a1.67 1.67 0 0 1 .18-3.33H40Zm-8.44-16.7v1.48a1.67 1.67 0 1 1-3.33 0V3.73l.01-.2-1.37 1.74a1.67 1.67 0 1 1-2.61-2.06L26.02.97c.18.15.26.4.2.64v.01a19.27 19.27 0 0 1 2.39.99.6.6 0 0 1 .82-.25 20 20 0 0 1 2.13 1.32Zm0 5.75a1.67 1.67 0 1 0-3.33 0v2.84c0 .26.06.5.16.72-.1.21-.16.45-.16.7v4.28c0 .6.32 1.13.8 1.42-.36.22-.63.57-.74.99h-3.13c-.29 0-.55.07-.79.2-.23-.13-.5-.2-.78-.2h-3.12a1.67 1.67 0 1 0 0 3.33h3.12c.29 0 .55-.07.79-.2.23.13.5.2.78.2h3.96a1.67 1.67 0 0 0 2.36-.93c.27.55.83.93 1.49.93h1.56a1.67 1.67 0 1 0 0-3.33h-1.56c-.6 0-1.1.3-1.4.77v-.33c0-.6-.33-1.13-.8-1.43.47-.29.8-.82.8-1.42V13.7c0-.26-.06-.5-.16-.71.1-.22.15-.46.15-.72V9.43Z" fill="#fff"/><path d="M18.75 5a5 5 0 0 1-5 5 5 5 0 0 1 5-5Z" fill="#00A896"/><path fill-rule="evenodd" clip-rule="evenodd" d="M17.41 4.44c.12-.1.26-.18.43-.2.3-.05.6-.07.91-.07.46 0 .83.37.83.83 0 .31-.02.61-.07.91-.06.4-.4.7-.79.7.3.25.41.68.23 1.04-.14.27-.3.53-.48.78a.83.83 0 0 1-1.02.27c.16.35.06.78-.27 1.02-.49.36-1.04.64-1.63.83a.83.83 0 0 1-.46.01.83.83 0 0 1-.43.2c-.3.05-.6.07-.91.07a.83.83 0 0 1-.83-.83c0-.31.02-.61.07-.91.06-.4.4-.7.79-.7a.83.83 0 0 1-.23-1.04c.14-.27.3-.53.48-.78a.83.83 0 0 1 1.02-.27.83.83 0 0 1 .27-1.02 5.82 5.82 0 0 1 1.63-.83.83.83 0 0 1 .46-.01ZM15.46 6.7c.12.27.1.59-.08.84-.13.18-.24.36-.34.56a.83.83 0 0 1-.71.45c.17.14.28.33.3.55l.11.02a.83.83 0 0 1 .3-.17c.42-.13.8-.33 1.16-.59.25-.18.57-.2.84-.08a.83.83 0 0 1 .08-.84c.13-.18.24-.36.34-.56a.83.83 0 0 1 .71-.45.84.84 0 0 1-.3-.55.83.83 0 0 1-.11-.02.83.83 0 0 1-.3.17c-.42.13-.8.33-1.16.59a.83.83 0 0 1-.84.08Z" fill="#00A896"/><path d="M18.75 26.25a5 5 0 0 1 5 5 5 5 0 0 1-5-5Z" fill="#00A896"/><path fill-rule="evenodd" clip-rule="evenodd" d="M18.19 27.59a.83.83 0 0 1-.2-.43c-.05-.3-.07-.6-.07-.91 0-.46.37-.83.83-.83.31 0 .61.02.91.07.4.06.7.4.7.79a.83.83 0 0 1 1.04-.23c.27.14.53.3.78.48.33.24.43.67.27 1.02a.83.83 0 0 1 1.02.27c.36.49.64 1.04.83 1.63.05.15.05.32.01.46.1.12.18.26.2.43.05.3.07.6.07.91 0 .46-.37.83-.83.83-.31 0-.61-.02-.91-.07a.83.83 0 0 1-.7-.79.83.83 0 0 1-1.04.23c-.27-.14-.53-.3-.78-.48a.83.83 0 0 1-.27-1.02.83.83 0 0 1-1.02-.27 5.82 5.82 0 0 1-.83-1.63.83.83 0 0 1-.01-.46Zm2.27 1.95c.27-.12.59-.1.84.08.18.13.36.24.56.34.28.15.44.42.45.71a.83.83 0 0 1 .55-.3l.02-.11a.83.83 0 0 1-.17-.3 4.15 4.15 0 0 0-.59-1.16.83.83 0 0 1-.08-.84.83.83 0 0 1-.84-.08 4.17 4.17 0 0 0-.56-.34.83.83 0 0 1-.45-.71.84.84 0 0 1-.55.3l-.02.11c.07.09.13.19.17.3.13.42.33.8.59 1.16.18.25.2.57.08.84Z" fill="#00A896"/><path d="M62 20.95c-2.71 0-4.07.83-4.07 2.5 0 .6.18 1.08.54 1.43.35.34.83.5 1.43.5 1.07 0 1.93-.33 2.6-1 .67-.69 1-1.6 1-2.73v-.4c0-.2-.1-.3-.3-.3H62Zm-3.73 8.27c-1.54 0-2.8-.5-3.8-1.47A5.3 5.3 0 0 1 53 23.88c0-4.04 3-6.06 9-6.06h1.2c.2 0 .3-.1.3-.27v-.17c0-.84-.22-1.45-.67-1.83-.42-.38-1.14-.57-2.16-.57-1.36 0-2.98.21-4.87.64-.47.09-.89-.01-1.27-.3a1.4 1.4 0 0 1-.53-1.14v-.06c0-.56.17-1.06.5-1.5.36-.47.8-.75 1.33-.84 1.96-.37 3.65-.56 5.07-.56 2.91 0 4.97.52 6.17 1.56 1.22 1.05 1.83 2.78 1.83 5.2v9c0 .51-.19.96-.57 1.34-.37.37-.82.56-1.33.56h-1.23a1.92 1.92 0 0 1-1.97-1.9v-.36c0-.03-.01-.04-.03-.04-.05 0-.07.01-.07.04a6.66 6.66 0 0 1-5.43 2.6ZM78.4 18.15v4.13c0 .74.34 1.41 1 2.04.7.6 1.47.9 2.34.9 1.02 0 1.83-.41 2.43-1.24.6-.84.9-2.1.9-3.76 0-3.34-1.11-5-3.33-5-.87 0-1.65.3-2.34.93-.66.6-1 1.27-1 2Zm-3.36 18.07c-.51 0-.96-.2-1.34-.57a1.82 1.82 0 0 1-.56-1.33V13.45c0-.51.19-.96.56-1.33.38-.38.83-.57 1.34-.57h1.33c.53 0 .99.19 1.37.57.37.35.57.8.6 1.33v.27c0 .02 0 .03.03.03l.07-.07a6.56 6.56 0 0 1 5.13-2.46c2.07 0 3.71.77 4.93 2.33 1.25 1.56 1.87 3.78 1.87 6.67 0 2.8-.64 5-1.93 6.6a5.94 5.94 0 0 1-4.87 2.4 7.01 7.01 0 0 1-5-2.07c-.02 0-.03.01-.03.03v7.14c0 .5-.2.95-.57 1.33-.38.38-.82.57-1.33.57h-1.6ZM94.67 15.62c-.5 0-.95-.2-1.33-.57a1.82 1.82 0 0 1-.57-1.33v-.27c0-.51.2-.96.57-1.33.38-.38.82-.57 1.33-.57h12.07c.51 0 .96.19 1.34.57.37.37.56.82.56 1.33v.27c0 .5-.19.95-.56 1.33-.38.38-.83.57-1.34.57h-2.96c-.18 0-.27.1-.27.3v11.06c0 .51-.2.96-.57 1.34-.38.37-.82.56-1.33.56h-1.8c-.51 0-.96-.19-1.34-.56a1.82 1.82 0 0 1-.56-1.34V15.92c0-.2-.1-.3-.27-.3h-2.97ZM119.47 14.85c-1 0-1.76.27-2.27.8-.5.51-.83 1.4-.96 2.67 0 .17.07.26.23.26h5.63c.2 0 .3-.1.3-.3-.09-2.29-1.06-3.43-2.93-3.43Zm.83 14.37c-3.02 0-5.35-.77-7-2.3-1.62-1.54-2.43-3.77-2.43-6.7 0-2.91.72-5.14 2.17-6.67 1.46-1.56 3.57-2.33 6.33-2.33 5.29 0 7.98 2.89 8.07 8.66 0 .54-.22 1-.64 1.37-.4.36-.86.53-1.4.53h-8.9c-.22 0-.3.1-.26.3.17 1.23.64 2.1 1.4 2.64.77.5 1.93.76 3.46.76 1 0 2.08-.14 3.24-.43.46-.11.87-.02 1.23.27.38.29.57.66.57 1.13v.07c0 .55-.18 1.06-.54 1.53-.33.44-.76.71-1.3.8-1.29.24-2.62.37-4 .37Zm3.3-25.44c.51 0 .95.2 1.3.57.38.36.57.79.57 1.3v1.23c0 .51-.19.96-.57 1.34-.35.37-.79.56-1.3.56h-1.13c-.51 0-.96-.19-1.33-.56a1.88 1.88 0 0 1-.54-1.34V5.65c0-.51.18-.94.54-1.3.37-.38.82-.57 1.33-.57h1.13Zm-8.46 0h1.13c.51 0 .94.2 1.3.57.38.36.57.79.57 1.3v1.23c0 .51-.2.96-.57 1.34-.36.37-.79.56-1.3.56h-1.13c-.52 0-.96-.19-1.34-.56a1.88 1.88 0 0 1-.53-1.34V5.65c0-.51.18-.94.53-1.3.38-.38.83-.57 1.34-.57ZM132.72 28.88a1.88 1.88 0 0 1-1.87-1.9V13.45a1.88 1.88 0 0 1 1.87-1.9h1.77c.55 0 1.07.17 1.56.5.49.31.86.72 1.1 1.23l3.44 7.87.06.03.03-.03 3.47-7.87a3.02 3.02 0 0 1 2.63-1.73h1.87c.51 0 .95.19 1.3.57.38.37.57.82.57 1.33v13.53c0 .51-.2.96-.57 1.34-.35.37-.79.56-1.3.56h-1.53a1.88 1.88 0 0 1-1.87-1.9v-8.13l-.03-.03-.03.03-1.84 4.33a2.7 2.7 0 0 1-1.06 1.27c-.47.31-1 .47-1.57.47h-.17a2.76 2.76 0 0 1-2.63-1.73l-1.83-4.34-.04-.03-.03.03v8.13c0 .51-.2.96-.57 1.34-.35.37-.79.56-1.3.56h-1.43Z" fill="#00A896"/><path d="M159.9 28.87c-.51 0-.96-.2-1.33-.57a1.82 1.82 0 0 1-.57-1.33V13.43c0-.5.19-.95.57-1.33.37-.38.82-.57 1.33-.57h12c.51 0 .96.2 1.33.57.38.38.57.82.57 1.33v13.54c0 .5-.19.95-.57 1.33-.37.38-.82.57-1.33.57h-1.67c-.5 0-.95-.2-1.33-.57a1.82 1.82 0 0 1-.57-1.33V15.73c0-.17-.09-.26-.26-.26h-4.34c-.17 0-.26.09-.26.26v11.24c0 .5-.2.95-.57 1.33-.38.38-.82.57-1.33.57h-1.67ZM180.12 28.87c-.52 0-.96-.2-1.34-.57a1.82 1.82 0 0 1-.56-1.33V13.43c0-.5.18-.95.56-1.33.38-.38.82-.57 1.34-.57h1.56c.51 0 .96.2 1.33.57.38.38.57.82.57 1.33v8.07h.07l4.1-8.27a2.83 2.83 0 0 1 2.73-1.7h1.64c.5 0 .95.2 1.33.57.38.38.56.82.56 1.33v13.54c0 .5-.18.95-.56 1.33-.38.38-.82.57-1.33.57h-1.57c-.51 0-.96-.2-1.34-.57a1.82 1.82 0 0 1-.56-1.33V18.9h-.07l-4.1 8.27a2.83 2.83 0 0 1-2.73 1.7h-1.63ZM200.33 28.87c-.51 0-.96-.2-1.33-.57a1.83 1.83 0 0 1-.57-1.33V13.43c0-.5.19-.95.57-1.33.37-.38.82-.57 1.33-.57H202c.5 0 .94.2 1.3.57.37.38.56.82.56 1.33V24.9c0 .18.1.27.3.27h4.3c.2 0 .3-.1.3-.27V13.43c0-.5.2-.95.57-1.33.38-.38.82-.57 1.33-.57h1.67c.51 0 .94.2 1.3.57.38.38.57.82.57 1.33V24.9c0 .18.1.27.3.27h1.26c.51 0 .96.19 1.34.56.37.38.56.83.56 1.34v3.9c0 .5-.19.95-.56 1.33-.38.38-.83.57-1.34.57h-1c-.5 0-.95-.2-1.33-.57a1.82 1.82 0 0 1-.57-1.33v-1.8c0-.2-.09-.3-.26-.3h-12.27ZM222.63 28.87c-.51 0-.96-.2-1.34-.57a1.82 1.82 0 0 1-.56-1.33V13.43c0-.5.19-.95.56-1.33.38-.38.83-.57 1.34-.57h1.66c.52 0 .95.2 1.3.57.38.38.57.82.57 1.33V24.9c0 .18.1.27.3.27h4.3c.2 0 .3-.1.3-.27V13.43c0-.5.19-.95.57-1.33.38-.38.82-.57 1.33-.57h1.67c.5 0 .94.2 1.3.57.38.38.56.82.56 1.33V24.9c0 .18.1.27.3.27h1.27c.51 0 .96.19 1.34.56.37.38.56.83.56 1.34v3.9c0 .5-.19.95-.56 1.33-.38.38-.83.57-1.34.57h-1c-.51 0-.95-.2-1.33-.57a1.82 1.82 0 0 1-.57-1.33v-1.8c0-.2-.09-.3-.26-.3h-12.27ZM251.2 20.93c-2.72 0-4.07.84-4.07 2.5 0 .6.17 1.08.53 1.44.35.33.83.5 1.43.5 1.07 0 1.94-.34 2.6-1 .67-.7 1-1.6 1-2.74v-.4c0-.2-.1-.3-.3-.3h-1.2Zm-3.74 8.27c-1.53 0-2.8-.49-3.8-1.47a5.3 5.3 0 0 1-1.47-3.86c0-4.05 3-6.07 9-6.07h1.2c.2 0 .3-.09.3-.27v-.16c0-.85-.22-1.46-.66-1.84-.43-.37-1.15-.56-2.17-.56-1.36 0-2.98.2-4.87.63-.46.09-.89-.01-1.26-.3a1.39 1.39 0 0 1-.54-1.13v-.07c0-.56.17-1.06.5-1.5.36-.47.8-.74 1.34-.83 1.95-.38 3.64-.57 5.06-.57 2.91 0 4.97.52 6.17 1.57 1.22 1.04 1.83 2.77 1.83 5.2v9c0 .5-.19.95-.56 1.33-.38.38-.83.57-1.34.57h-1.23a1.92 1.92 0 0 1-1.97-1.9v-.37c0-.02 0-.03-.03-.03-.05 0-.07 0-.07.03a6.66 6.66 0 0 1-5.43 2.6Z" fill="#F3752B"/></svg>