<svg width="24" height="24" viewBox="0 0 24 24" xmlns="http://www.w3.org/2000/svg"><path d="M12 0a1 1 0 0 0-1 1v2a1 1 0 1 0 2 0V1a1 1 0 0 0-1-1Zm0 20a1 1 0 0 0-1 1v2a1 1 0 1 0 2 0v-2a1 1 0 0 0-1-1Zm11-9a1 1 0 1 1 0 2h-2a1 1 0 1 1 0-2h2ZM4 12a1 1 0 0 0-1-1H1a1 1 0 1 0 0 2h2a1 1 0 0 0 1-1Zm15.07-8.49a1 1 0 1 1 1.42 1.42l-1.42 1.41a1 1 0 1 1-1.41-1.41l1.41-1.42ZM6.34 17.66a1 1 0 0 0-1.41 0L3.5 19.07a1 1 0 1 0 1.42 1.42l1.41-1.42a1 1 0 0 0 0-1.41Zm14.15 1.41a1 1 0 0 1-1.42 1.42l-1.41-1.42a1 1 0 1 1 1.41-1.41l1.42 1.41ZM6.34 6.34a1 1 0 0 0 0-1.41L4.93 3.5A1 1 0 0 0 3.5 4.93l1.42 1.41a1 1 0 0 0 1.41 0Z"/></svg>